<?xml version="1.0" encoding="UTF-8"?>
<svg version="1.1" viewBox="0 0 2048 1888" width="592" height="546" xmlns="http://www.w3.org/2000/svg">
<path transform="translate(0)" d="m0 0h2048v1888h-2048z" fill="#FCFCFC"/>
<path transform="translate(1026,376)" d="m0 0h36l32 3 31 6 25 7 28 10 29 14 15 8 19 12 19 14 13 11 12 11 23 23 9 11 12 15 10 15 12 20 12 23 11 27 8 24 7 29 4 26 2 24v34l-3 31-4 24-7 28-10 29-11 24-13 25-13 20-10 14-9 11-13 15-22 22-11 9-16 13-24 16-21 12-25 12-23 9-27 8-22 5-24 4-18 2-20 1h-13l-27-2-32-5-25-6-20-6-24-9-31-15-25-15-18-13-10-8-14-12-8-7v-2l-4-2-7-7-7-8-9-10-13-17-10-14-8-13-9-16-8-16-10-23-10-30-6-26-3-16-3-28-1-26 1-25 3-26 5-26 6-23 9-26 11-25 8-15 6-11 9-15 12-17 13-16 11-12 7-8 8-8 8-7 15-13 19-14 17-11 18-10 22-11 25-10 22-7 24-6 31-5z" fill="#FCFCFC"/>
<path transform="translate(1026,376)" d="m0 0h36l32 3 31 6 25 7 28 10 29 14 15 8 19 12 19 14 13 11 12 11 23 23 9 11 12 15 10 15 12 20 12 23 11 27 8 24 7 29 4 26 2 24v34l-3 31-4 24-7 28-10 29-11 24-13 25-13 20-10 14-9 11-13 15-22 22-11 9-16 13-24 16-21 12-25 12-23 9-27 8-22 5-24 4-18 2-20 1h-13l-27-2-32-5-25-6-20-6-24-9-31-15-25-15-18-13-10-8-14-12-8-7v-2l-4-2-7-7-7-8-9-10-13-17-10-14-8-13-9-16-8-16-10-23-10-30-6-26-3-16-3-28-1-26 1-25 3-26 5-26 6-23 9-26 11-25 8-15 6-11 9-15 12-17 13-16 11-12 7-8 8-8 8-7 15-13 19-14 17-11 18-10 22-11 25-10 22-7 24-6 31-5zm-14 36-17 3-39 8-21 7-12 5-16 8-13 6-16 9-16 11-13 11-12 9-11 9v2l-4 2-12 13-6 8-11 14-7 8-12 19-6 10-12 26-8 18-7 22-7 32-3 16-1 9v55l2 17 7 34 6 23 10 25 18 36 11 17 11 14 12 14 7 10h2l2 4 9 9 8 7 18 14 15 12 18 11 15 8 20 9 16 7 23 7 44 9 28 2h18l28-1 30-5 38-10 25-10 24-12 15-8 15-10 12-9 11-10 11-9 8-7 11-11 9-11 9-12 8-11 10-14 12-22 11-25 6-15 6-19 3-12 4-24 2-9 1-9v-61l-3-17-6-32-6-20-6-15-10-23-8-16-8-14-10-13-13-18-11-13-12-13-11-9-14-12-3-1v-2l-16-12-20-12-38-19-19-7-36-9-13-3-20-3z" fill="#1F2334"/>
<path transform="translate(1012,412)" d="m0 0h64l26 4 43 11 21 8 40 20 19 12 13 10v2l4 2 10 9 9 7 13 12 7 8 11 14 11 15 9 12 14 25 11 26 6 14 6 19 9 45 1 8v61l-2 14-4 20-3 16-6 20-5 13-9 21-9 19-9 15-9 12-16 22-12 14-14 14-8 6-15 13-10 8-15 10-12 7-16 8-23 11-20 7-39 10-25 4-28 1h-18l-28-2-48-10-24-8-28-13-16-8-14-8-12-9-15-12-13-10-16-15-2-4h-2l-9-12-11-13-12-16-11-18-8-16-12-25-7-19-6-25-6-29-2-17v-55l2-14 7-33 4-17 7-20 16-34 6-12 12-19 8-10 10-12 10-13 12-13h2v-2l11-9 14-11 11-9 21-14 12-7 20-9 15-7 19-7 21-5 34-7zm38 29-19 4-7 2-10 1-20-1-11 2-10 6-14 6-6 2-22 3-11 4-10 11-7 5-3 1v2l-6 1-13 6-9 4-4 2-6 8-4 8-9 11-14 9-8 6-5 6-5 9-3 11-7 12-7 7-2 1v2h-2v2h-2v2l-3 1-5 10-1 5-1 15-6 16-8 15-2 9v8l1 7v13l-4 22-1 6v11l5 17 2 18v13l2 12 8 14 5 15 5 25 5 8 13 13 6 10 5 16 4 8 5 5 17 10h2v2l5 4 7 10 4 8 6 7 7 4 16 4 12 6 12 14 3 1v2l12 5 12 1 16 6 21 9 14 2 15-1 14 2 13 3 7 2 10-1 11-4 11-3 21-2 15-2 16-7 8-4 14-5 22-5 9-6 11-11 10-7 6-2v-2h4v-2l5-1 10-5 6-7 14-22 20-14 7-8 10-24 4-6 9-10 6-9 5-18 3-15 6-15 2-3 2-6 2-9v-7l2-6v-15l-2-5 1-11v-7l1-8h-2l1-5-1-5v-7l-1-3 2-1-1-2 2-2h-2v-2l3 1 1-3-2-1-3-16-4-11-1-7-3-11-2-4-3-15-5-12-11-13h-2l-2-6-4-6-6-16-5-10-6-8-9-6h-2v-2l-5-4h-2l-2-4-6-9h-2l-1-4-1-2h-2l-2-5-12-10h-3v-2l-17-8-4-2-2-4-4-4-5-3-10-7-20-7-15-4-17-9-7-3-5-1-20-1-22-2-16-6z" fill="#F4E8E2"/>
<path transform="translate(1034,573)" d="m0 0h21l23 2 22 5 15 6 13 7 9 7 8 7 9 12 8 15 5 17 3 19v28l-3 20-5 17-7 14-8 11-10 10-10 7-15 8-15 5-18 4-16 2-19 1-2 5-9 10-15 20-11 14-3 2 2-11 7-32 2-7-21-6-16-6-15-8-13-10-7-7-9-13-7-15-5-17-2-12-1-11v-16l2-20 5-19 8-16 7-11 14-14 13-8 15-7 18-5 19-3z" fill="#1F2334"/>
<path transform="translate(1022,364)" d="m0 0h52l15 1 21 3 22 5 24 7 8 3 20 7 38 19 9 5v2l6 2 16 11 12 8 5 5 10 8 6 5v2l4 2 4 5 6 5v2l4 2 4 5 12 12 8 10v2h2l8 11 4 6 2 1 3 6 4 5 6 11 4 6 14 28 15 39 4 13 3 12 4 19 2 9 4 34 1 29-1 27-4 30-7 30-3 12-5 14-5 13-2 5-8 18-8 16-11 19-7 11h-2l-1 4-10 14-7 9-8 10h-2l-2 4-4 5-10 10-5 6-7 6-8 7-4 3h-2l-1 3-6 4h-2v2l-4 1v2l-4 1v2l-5 3h-2v2l-9 5-15 10-11 6h-3l-1 2-10 5-23 10-15 6-26 8-7 2-27 6-37 4h-52l-31-4-19-4-16-4v-2l-3 1-11-4-14-4-9-4-16-6-7-4-10-5-9-5-17-10-8-5-2-1v-2l-5-2-13-9-12-9v-2h-3l-5-5-6-5v-2l-3-1-4-5-7-6v-2l-4-2-5-5-8-9v-2h-2l-8-11-3-3-1-3-3-2-1-3-2-1-1-4-3-3v-2l-3-1-1-5h-2l-2-6h-2l-6-11-11-19-4-10-7-16-3-6-4-13-6-20-1-11h-2l-1-7-6-38-1-32v-18l2-28 3-24 2-7 2-11 6-23 4-13 3-8 8-21 3-5 9-19 7-11 6-11 3-5h2l2-6 4-5 10-14 10-13 4-5h2l2-4 5-5 6-5 2-3h2l2-4 3-3h2v-2h2l2-4 7-7h2v-2l5-3h2v-2l9-7 16-10 5-4 33-18 19-9 20-8 9-3 36-10 20-4 22-3zm4 12-30 3-27 5-27 7-26 9-24 11-20 10-18 11-17 12-13 10-15 13-15 14-13 14-9 11-11 14-14 21-9 15-8 16-10 22-10 28-6 22-5 24-3 21-1 11-1 26 1 25 3 28 6 30 7 25 10 27 8 18 12 22 9 15 12 17 10 13 13 15 15 16h2v2l8 7 11 10 17 13 19 13 24 14 27 13 24 9 23 7 27 6 27 4 27 2h13l20-1 31-4 25-5 26-7 17-6 26-11 27-14 19-12 18-13 17-14 13-12 18-18 9-11 10-12 13-19 11-18 12-23 10-22 12-36 6-26 4-27 2-23v-34l-3-32-5-27-6-23-8-24-11-26-13-25-14-22-10-14-9-11-12-14-27-27-11-9-15-12-21-14-19-11-26-13-26-10-26-8-27-6-20-3-24-2z" fill="#ACAFB3"/>
<path transform="translate(533,1231)" d="m0 0h53l17 44 22 57 8 19 2 1 3-10 10-27 15-38 13-34 5-12h53l1 61-1 125-7 1h-26l-7-1-1-9v-103l-8 18-12 31-12 30-11 27-3 6-5 1h-19l-4-2-8-18-20-51-15-38-2-4-1 112-8 1h-18l-14-1-1-54v-131z" fill="#1F2334"/>
<path transform="translate(896,1231)" d="m0 0h91l14 2 14 5 11 7 9 10 7 14 3 16v13l-2 13-5 12-4 6-9 10-9 6h-2l15 29 10 19 12 23v1l-11 1h-39l-4-4-18-35-12-24v-2h-25l-1 64-2 1h-41l-2-1z" fill="#1F2334"/>
<path transform="translate(1477,1274)" d="m0 0h21l16 3 14 6 12 9 8 10 7 14 3 10 2 16v10l-2 16-5 16-6 10-9 10-11 8-16 6-11 2h-22l-16-3-12-5-12-9-8-9-5-8-6-18-2-16v-10l3-20 6-15 9-13 11-9 14-7 10-3z" fill="#1F2334"/>
<path transform="translate(1110,1274)" d="m0 0h19l12 2 14 5 10 7 7 6 9 14 5 13 2 12 1 10v15l-94 1 3 12 5 8 6 5 5 2h14l7-2 8-6 4-6h40l-1 10-6 12-11 12-11 7-9 4-13 3-14 1-19-2-13-4-10-5-10-8-8-10-7-14-3-11-2-21 2-17 3-12 5-12 9-12 11-9 10-5 12-4z" fill="#1F2334"/>
<path transform="translate(780,1276)" d="m0 0h8l4 13 22 88 1 1 12-49 13-52h47l-2 10-20 61-11 35-14 41-7 14-8 10-8 6-11 5-12 3-8 1h-21l-10-1-1-1v-33h22l6-3 4-7-2-10-14-40-17-49-11-31-2-7v-4z" fill="#1F2334"/>
<path transform="translate(1246,1274)" d="m0 0h25l12 2 13 5 11 7 7 8 6 12 1 4v9l-2 1h-38l-6-11-7-4-11-1-9 3-5 5v6l5 5 13 4 29 6 16 6 9 6 6 8 3 7 1 5v10l-2 11-5 10-9 9-10 6-10 4-14 3-9 1h-10l-21-3-12-4-11-7-9-9-6-12-2-7v-6l42-1 3 5 5 7 9 4h12l9-3 4-5v-6l-5-4-7-3-36-8-13-5-10-8-6-8-3-7-1-5v-13l4-13 5-8 9-8 13-6 10-3z" fill="#1F2334"/>
<path transform="translate(1022,364)" d="m0 0h52l15 1 21 3 22 5 24 7 8 3 20 7 38 19 9 5v2l6 2 16 11 12 8 5 5 10 8 6 5v2l4 2 4 5 6 5v2l4 2 4 5 12 12 8 10v2h2l8 11 4 6 2 1 3 6 4 5 6 11 4 6 14 28 15 39 4 13 3 12 4 19 2 9 4 34 1 29-1 27-4 30-7 30-3 12-5 14-5 13-2 5-8 18-8 16-11 19-7 11h-2l-1 4-10 14-7 9-8 10h-2l-2 4-4 5-10 10-5 6-7 6-8 7-4 3h-2l-1 3-6 4h-2v2l-4 1v2l-4 1v2l-5 3h-2v2l-9 5-15 10-11 6h-3l-1 2-10 5-23 10-15 6-26 8-7 2-27 6-37 4h-52l-31-4-19-4-16-4v-2l-3 1-11-4-14-4-9-4-16-6-7-4-10-5-9-5-17-10-8-5-2-1v-2l-5-2-13-9-12-9v-2h-3l-5-5-6-5v-2l-3-1-4-5-7-6v-2l-4-2-5-5-8-9v-2h-2l-8-11-3-3-1-3-3-2-1-3-2-1-1-4-3-3v-2l-3-1-1-5h-2l-2-6h-2l-6-11-11-19-4-10-7-16-3-6-4-13-6-20-1-11h-2l-1-7-6-38-1-32v-18l2-28 3-24 2-7 2-11 6-23 4-13 3-8 8-21 3-5 9-19 7-11 6-11 3-5h2l2-6 4-5 10-14 10-13 4-5h2l2-4 5-5 6-5 2-3h2l2-4 3-3h2v-2h2l2-4 7-7h2v-2l5-3h2v-2l9-7 16-10 5-4 33-18 19-9 20-8 9-3 36-10 20-4 22-3zm8 3-34 3-28 5-17 4-11 3-9 3-19 7-23 10-20 11v2l-6 2-11 7-12 8-12 9-10 9-8 5v2l-4 2-29 29-11 14-8 9-13 19-12 19-11 20-10 22-6 17-4 13-4 14-6 28-3 21-2 22v52l5 35 7 30 5 16 3 9 6 16 16 32 13 22 7 10 9 13h2l1 4h2l2 4 6 8h2l2 4 7 8h2l2 4 6 6h2l2 4h2l1 3h2l2 4h2l1 3 11 9 6 5h2v2l9 6 17 12 13 8 12 7h3v2l17 8 13 6 16 6 16 5 26 7 27 5 17 2 20 1h31l32-3 14-3 16-3 25-6 20-7 16-6 28-14 25-15 18-12v-2l4-2 12-9 11-9 4-4v-2l4-2 6-6v-2l4-2 1-3h2l7-8 11-12 4-5v-2h2l4-6 15-22 6-9 12-22 10-21 8-21v-5l2-1 6-19 5-18 5-29 1-9 1-19v-34l-3-34-6-31-3-9-2-9-7-21-5-13-3-7-8-18-4-8h-2l-1-6-6-10-2-4h-2l-1-5-5-6-3-5-5-7-6-8-7-8-4-6-8-8-5-6h-2l-2-4-3-3h-2l-1-3-8-7-5-5-11-10-11-9-18-13-17-11-12-7-17-8-14-7-17-7-15-5-23-6-27-5-23-3-11-1z" fill="#C8CBCE"/>
<path transform="translate(1030,561)" d="m0 0h32l18 1 22 5 16 6 13 7v2l5 2 5 4v2h3l7 8 7 7 4 6v2h2l1 4 2 2 5 12 4 10 4 16 2 18v23l-2 17-4 15-4 11-8 14-3 5h-2l-2 4-9 10-3 1v2l-17 12-11 6-11 5-9 3-27 5-8 2-9 3-6 4-3 1v2l-8 6h-2v2l-6 3-5-1-1-5 13-16 8-10 1-2 3-1 26-2 20-4 16-5 16-8 9-6 10-9 6-7 8-13 6-16 4-20 1-8v-28l-3-19-5-17-8-15-7-9-5-6-10-8-14-8-14-6-19-5-14-2-15-1h-21l-22 2-23 5-15 6-13 7-9 7-10 10-9 14-7 16-4 16-2 20v16l2 18 5 19 5 12 6 11 9 11 9 8 14 9 18 8 22 7 6 1-7 31-2-3-5-3-2-2v-4h-2v-3h-2l-2-4-10-7-4-3-7-3-16-9-11-7v-2l-4-2-4-4v-2h-2l-7-8-4-4-1-5h-2l-8-16-2-7-4-18-1-30 1-22 2-8 1-8 6-18 10-18h2l2-4 6-8 11-9 5-4 9-5 13-6 12-4 16-4 10-2z" fill="#ACAFB3"/>
<path transform="translate(1343,1244)" d="m0 0h44l1 32 24 1v33l-24 1v60l2 9 4 4 6 2 12 1v31l-3 2-10 1h-13l-17-3-10-4-10-9-4-8-2-8-1-11v-68h-18l-1-6v-20l1-7 19-1z" fill="#1F2334"/>
<path transform="translate(799,1585)" d="m0 0h13l12 3 10 6 7 8 6 13 2 12v13l-3 15-5 10-7 8-10 6-7 2-14 1-12-2-12-6-8-8-6-12-2-7-1-8v-10l3-16 7-14 9-8 8-4z" fill="#FAFAFA"/>
<path transform="translate(1030,561)" d="m0 0h32l18 1 22 5 16 6 13 7v2l5 2 5 4v2h3l7 8 7 7 4 6v2h2l1 4 2 2 5 12 4 10 4 16 2 18v23l-2 17-4 15-4 11-8 14-3 5h-2l-2 4-9 10-3 1v2l-17 12-11 6-11 5-9 3-27 5-8 2-9 3-6 4-3 1v2l-8 6h-2v2l-6 3-5-1-1-5 5-6 4-2 4 1 5-1v-2l7-4 12-6 18-4 16-3 10-3 12-5 17-9 9-7h2v-2h2l1-3 5-5 7-9 5-8 6-12 5-17 3-25v-18l-3-23-5-16-5-12-9-14-15-16-13-10-17-9-15-5-17-3-24-2-28 1-20 2-17 4-24 10-5 3h-2v2l-5 3-10 9-7 7-10 15-5 9-3 9-3 13-3 36 1 17 4 21 5 13 4 8 7 11 12 13 7 7 14 9 15 8 12 6 7 6 7 10h3v7l-2 4-1-3-5-3-2-2v-4h-2v-3h-2l-2-4-10-7-4-3-7-3-16-9-11-7v-2l-4-2-4-4v-2h-2l-7-8-4-4-1-5h-2l-8-16-2-7-4-18-1-30 1-22 2-8 1-8 6-18 10-18h2l2-4 6-8 11-9 5-4 9-5 13-6 12-4 16-4 10-2z" fill="#C7CACD"/>
<path transform="translate(900,1586)" d="m0 0h9l5 5 8 12 16 23 11 16 9 12v2h2v-69l2-1h9l1 1 1 8v43l-1 42h-12l-10-13-13-19-16-23-9-13-2-1v69h-13v-93z" fill="#1F2334"/>
<path transform="translate(1028,1586)" d="m0 0h9l5 5 8 12 16 23 11 16 9 12v2h2v-69l6-1 6 1 1 28-1 65h-12l-10-13-13-19-16-23-9-13-2-1v69h-12l-1-1v-92z" fill="#1F2334"/>
<path transform="translate(799,1585)" d="m0 0h13l12 3 10 6 7 8 6 13 2 12v13l-3 15-5 10-7 8-10 6-7 2-14 1-12-2-12-6-8-8-6-12-2-7-1-8v-10l3-16 7-14 9-8 8-4zm2 12-11 4-5 4-7 11-2 7v20l4 11 4 6 8 7 5 2 11 1 9-2 9-6 6-9 3-9 1-13-2-12-6-12-7-6-6-3-5-1z" fill="#1F2334"/>
<path transform="translate(1483,1309)" d="m0 0h11l8 4 7 8 4 10 1 5v22l-4 13-6 9-7 4-2 1h-13l-6-3-7-7-5-12-1-5v-22l4-13 6-8 7-5z" fill="#FAFAFA"/>
<path transform="translate(1062,629)" d="m0 0h10l-1 6-10 25-14 34-2 4 34 1-2 4-9 14-34 51-8 11-1-3 15-50 4-14h-34l2-5 8-13 28-48 9-16z" fill="#F99861"/>
<path transform="translate(1293,1585)" d="m0 0h14l13 4 9 7 6 8 3 7v5h-12l-7-10-6-5-9-3h-9l-10 4-5 4-6 10-2 6-1 7v9l2 10 5 10 5 5 6 4 3 1h15l10-5 7-10 3-3h10l1 1-1 8-6 10-8 7-8 4-10 2-16-1-11-4-9-7-7-11-4-11-1-6v-16l3-14 6-12 7-7 9-5 5-2z" fill="#1F2334"/>
<path transform="translate(670,1585)" d="m0 0h15l10 3 9 6 7 8 5 11v3h-13l-7-11-8-5-7-2h-9l-10 4-7 7-5 10-1 4v20l4 11 4 6 7 6 5 2h15l7-3 6-5 6-9 3-1h8l1 1v6l-5 10-8 8-10 5-10 2-15-1-11-4-6-4-9-10-5-12-2-12v-9l2-14 5-12 6-8 8-6 10-4z" fill="#1F2334"/>
<path transform="translate(1157,1586)" d="m0 0h44l11 1v11l-45 1-1 27h36l8 1v10l-1 1-42 1-1 29 46 1v11h-59v-93z" fill="#1F2334"/>
<path transform="translate(943,1266)" d="m0 0h28l11 2 9 6 5 7 2 8-1 11-4 8-5 5-8 4-6 1h-32l-1-3v-44z" fill="#F9F9F9"/>
<path transform="translate(1064,412)" d="m0 0h12l26 4 43 11 21 8 14 7v2l-5 3-7 12-5-1-20-8-12-5-1-2 2-7-13-6-5-1h-7l-3 9-12-1-27-4-1-1-1-14-2-4z" fill="#F89862"/>
<path transform="translate(1164,994)" d="m0 0h5l3 9h2v2l7 2h2v2l-21 10-20 7-39 10-25 4h-14v-2h-2l2-7 1-11 1-1 33-5h6l2 7 1 5 13-1 5 2 5-2v-18l8-3 20-8z" fill="#F89862"/>
<path transform="translate(1381,1586)" d="m0 0h55l15 1-1 11h-28l-1 82h-12l-1-1v-41l-1-39-27-1-1-1v-10z" fill="#1F2334"/>
<path transform="translate(1352,678)" d="m0 0 3 1 3 8 1 8v61l-2 14h-7l-14-4 1-20v-41l-1-10v-9l5-2 7-1z" fill="#F99861"/>
<path transform="translate(824,923)" d="m0 0 4 1 20 20 6 5-2 4-4 5v8l3 4v3l-4-2-13-10-16-15-2-4h-2l-6-8v-3l9-3z" fill="#F99861"/>
<path transform="translate(1223,959)" d="m0 0 4 1 6 7 7 2 4-1 1-3h2l-2 4-10 9-20 14-14 8h-4l-2-12-2-4v-5l19-12z" fill="#F99862"/>
<path transform="translate(852,479)" d="m0 0v3l-6 7 1 5 6 7-1 4-10 9-16 16-4-1-7-6-7-3 2-5 8-8 6-7h2v-2l11-9 12-9z" fill="#F89862"/>
<path transform="translate(874,967)" d="m0 0 6 2 18 11 12 7-5 10v6l1 4 3 1-3 1-17-8-18-11-12-9v-2l10-5z" fill="#F99861"/>
<path transform="translate(933,999)" d="m0 0 9 2 30 10-1 6v11l5 4h-7l-23-6-19-7-9-5 3-1 7-3z" fill="#F99861"/>
<path transform="translate(904,444)" d="m0 0h4l-1 4-2 2 1 8 3 5-1 4-18 10-13 8-4-1-6-7v-2l-6-2 1-4 21-14 12-7z" fill="#F99861"/>
<path transform="translate(784,868)" d="m0 0 5 1 8 14 10 15 2 4-9 6-4 9-3-1-11-15-11-18-4-8v-3l13-2z" fill="#F99861"/>
<path transform="translate(1012,412)" d="m0 0h28l5 1-5 5-1 3-1 11-17 2-18 2h-6l-3-13-4-5v-2l14-3z" fill="#F99861"/>
<path transform="translate(1064,412)" d="m0 0h12l26 4 11 3v2l2 1-6 2-5 14-12-1-27-4-1-1-1-14-2-4z" fill="#F99861"/>
<path transform="translate(1272,912)" d="m0 0 5 2 6 4 8 2-1 4-8 10-12 13-9 9-3 2h-3l-3-9-6-7 2-4 16-17z" fill="#F99861"/>
<path transform="translate(965,421)" d="m0 0h8l-2 5v16l-7 2-26 9h-5l-5-10-5-6v-2l26-10z" fill="#F99862"/>
<path transform="translate(1308,856)" d="m0 0 5 1 5 2 10 1 1 3-13 25-11 16-4-1-2-6-4-2-6-4 2-5 14-25z" fill="#F99861"/>
<path transform="translate(756,806)" d="m0 0h6l10 28 3 7v3l-10 4-3 2-2 5h-3l-9-21-6-18-1-9h9z" fill="#F99861"/>
<path transform="translate(795,535)" d="m0 0 2 1 1 7 10 7-2 6-7 10-12 19-5-2-7-3-7-1 1-7 13-21 9-12z" fill="#F99861"/>
<path transform="translate(1254,494)" d="m0 0 5 1 15 14 7 8 9 11v3l-10 4-7 5-7-6-11-12-9-10 1-4 5-6z" fill="#F89862"/>
<path transform="translate(1331,793)" d="m0 0 14 1 6-1v9l-6 21-6 16-1 2h-3l-5-5-10-5 1-7 6-19 3-11z" fill="#F99861"/>
<path transform="translate(1197,452)" d="m0 0 5 1 17 10 16 12 4 4-1 3-6 4-6 7-4-1-15-10-14-9-1-3 4-8z" fill="#F89862"/>
<path transform="translate(731,738)" d="m0 0 19 2 1 1 4 29v10l-16 4v2l-4-1-4-22-1-11v-13z" fill="#F89862"/>
<path transform="translate(738,665)" d="m0 0 1 2 5 2 11 4-1 13-3 26-2 1-17 1-2-4v-13l2-14 3-15h2z" fill="#F99861"/>
<path transform="translate(758,599)" d="m0 0h2l5 5 10 5-7 20-6 16-1 1h-6l-2-1h-8-4l1-8 8-24 6-13z" fill="#F99861"/>
<path transform="translate(1334,612)" d="m0 0 5 1 7 19 5 18v8l-19 1-3-5-8-27-1-6 5-3 7-2z" fill="#F89862"/>
<path transform="translate(997,1017)" d="m0 0h12l29 3 2 20h-26l-14-2-11-2-1-2h5z" fill="#F99861"/>
<path transform="translate(1302,549)" d="m0 0 4 1 8 11 13 24 1 5-6 2-11 4-4-2-10-18-7-11v-5l9-6z" fill="#F99861"/>
<path transform="translate(1115,1307)" d="m0 0h11l9 4 8 9 2 5v5h-49l1-7 6-9 9-6z" fill="#FAFAFA"/>
<path transform="translate(1052,1029)" d="m0 0h9l4 2-3 7h2v2l-14 1h-18v-1h8l-2-10z" fill="#ACAFB3"/>
<path transform="translate(730,710)" d="m0 0 2 3h11l-2 2v21l-1 3-9-1-1-7z" fill="#ACAFB3"/>
<path transform="translate(1345,768)" d="m0 0 11 2-1 10-3 18h-1v-5l-7 2-2-2 2-10 1-8z" fill="#ACAFB3"/>
<path transform="translate(1195,988)" d="m0 0 2 3 1 10-13 7h-6l-5-3-1-3 18-10h3z" fill="#ADAEB1"/>
<path transform="translate(1250,948)" d="m0 0 3 1 3 9-6 7-5 1-3 3-3 1-7-3 5-5 4-2v-2l5-5z" fill="#ACAFB3"/>
<path transform="translate(1328,835)" d="m0 0 4 2 3 2v2h2l-1 5-7 15-10-1 5-13h2z" fill="#ACAFB3"/>
<path transform="translate(1290,530)" d="m0 0 5 5 8 11 1 3-3 2-2 4-4-2-8-13v-2l-4-2-1-3z" fill="#ACAFB3"/>
<path transform="translate(741,783)" d="m0 0 4 1 3 13 2 3v6l-1 2h-6l-3-2-4-17v-3h3v-2z" fill="#ACAFB3"/>
<path transform="translate(1296,896)" d="m0 0 3 1 2 6 3 1-7 11-5 6-9-2v-3h2v-3h2l2-4 3-4z" fill="#ACAFB3"/>
<path transform="translate(807,520)" d="m0 0 9 3v3l-5 5-3 1-2 5-6 5-2 2-2-3v-8z" fill="#ACAFB3"/>
<path transform="translate(922,436)" d="m0 0 5 4 2 4-6 4-11 4-5 1h-3l1-4 2-2v-4z" fill="#ACAFB2"/>
<path transform="translate(1327,590)" d="m0 0h2l9 21-1 2-4 1-3 3-2-4-4-10-4-11z" fill="#ACAFB3"/>
<path transform="translate(970,1022)" d="m0 0 16 2 9 3-1 5-1 2-9 1-9-2-5-5z" fill="#ACAFB3"/>
<path transform="translate(1113,420)" d="m0 0 8 1 12 3v11l-6-1-8-4-12-2 2-5z" fill="#B2ADAC"/>
<path transform="translate(745,644)" d="m0 0h8l-5 11-3 11-1 3-5-2-1-1-2 2 1-9 3-13z" fill="#ACAFB3"/>
<path transform="translate(1239,479)" d="m0 0 8 6 9 8-2 1v6l-3 4-1-4h-3l-4-6-2-4-6-2-2-4 5-3z" fill="#ACAFB3"/>
<path transform="translate(1180,443)" d="m0 0 6 2 12 6-1 11-2 1-4-4-9-6-7-2v-2l-2-1 4-4z" fill="#ACAEB2"/>
<path transform="translate(1351,655)" d="m0 0h1l4 23-1 4-1-3h-2l-4 5h-2l-2-19-1-8 8 1z" fill="#ACAFB3"/>
<path transform="translate(767,577)" d="m0 0 1 2h7l2 2-7 11-6 11-4-2v-2l-3 1 2-6z" fill="#ACAFB3"/>
<path transform="translate(985,417)" d="m0 0h5l5 6v3l-17 3-3 1-4-2 1-6-2-2z" fill="#ACAFB3"/>
<path transform="translate(1040,412)" d="m0 0h24l-2 3 2 5h-3v2h-19l-3-4 3-4z" fill="#ACAFB3"/>
<path transform="translate(799,909)" d="m0 0h2l6 9v2l5 2 4 8-9 2-12-14z" fill="#ACAFB3"/>
<path transform="translate(762,849)" d="m0 0h2l6 11 5 8-1 4-8 1-8-16v-2h2z" fill="#ACAFB2"/>
<path transform="translate(860,471)" d="m0 0 1 2 4 1 3 3-1 3-7 4h-2l-1 3-7 4-5 1 1-5 5-5 1-2-2-1z" fill="#ACAFB3"/>
<path transform="translate(904,999)" d="m0 0 7 1 11 5 7 3-1 3-8 3-5-1-7-3v-2l-2-1-2-4z" fill="#ADAEB1"/>
<path transform="translate(847,959)" d="m0 0 5 4v2l4 2 5 3 5 2 1 2 2 1-10 5-8-6-3-7-1-1z" fill="#ACAFB3"/>
<path transform="translate(1131,1016)" d="m0 0h1v9l-6 3-7-2-8 1-3-2 16-6z" fill="#ACAFB3"/>
</svg>
